<?xml version="1.0" encoding="utf-8"?>
<!-- Uploaded to: SVG Repo, www.svgrepo.com, Generator: SVG Repo Mixer Tools -->
<svg width="800px" height="800px" viewBox="0 0 1024 1024" class="icon" version="1.1"
    xmlns="http://www.w3.org/2000/svg">
    <path
        d="M547.8 408.1H291.9v-92.8c0-15.2 12.4-27.6 27.6-27.6h200.7c15.2 0 27.6 12.4 27.6 27.6v92.8z"
        fill="#D5D9CF" />
    <path
        d="M553.3 413.6H286.4v-98.3c0-18.3 14.9-33.1 33.1-33.1h200.7c18.3 0 33.1 14.9 33.1 33.1v98.3z m-255.9-11h244.9v-87.3c0-12.2-9.9-22.1-22.1-22.1H319.5c-12.2 0-22.1 9.9-22.1 22.1v87.3z"
        fill="#333336" />
    <path
        d="M558.7 446.2H281c-6.6 0-12-5.4-12-12v-14.1c0-6.6 5.4-12 12-12h277.7c6.6 0 12 5.4 12 12v14.1c0 6.6-5.4 12-12 12z"
        fill="#D5D9CF" />
    <path
        d="M558.7 451.7H281c-9.6 0-17.5-7.9-17.5-17.5v-14.1c0-9.6 7.9-17.5 17.5-17.5h277.7c9.6 0 17.5 7.9 17.5 17.5v14.1c0 9.7-7.8 17.5-17.5 17.5zM281 413.6c-3.6 0-6.5 2.9-6.5 6.5v14.1c0 3.6 2.9 6.5 6.5 6.5h277.7c3.6 0 6.5-2.9 6.5-6.5v-14.1c0-3.6-2.9-6.5-6.5-6.5H281z"
        fill="#333336" />
    <path
        d="M608.2 488.4c-20.7-4.2-41.2-8.2-78.7-11v-31.2H310.2v31.7c-36.8 3-57.6 7.4-78.9 11.8-30.4 6.2-52.1 32.9-52.1 63.9v232.8c0 11.9 9.7 21.6 21.6 21.6h438.1c11.9 0 21.6-9.7 21.6-21.6V552.3c0-31.1-21.9-57.8-52.3-63.9z"
        fill="#FFD632" />
    <path
        d="M638.9 813.5H200.8c-14.9 0-27.1-12.1-27.1-27.1V553.5c0-33.4 23.8-62.6 56.5-69.3l1.8-0.4c19.5-4 39.6-8.1 72.7-11.1v-32.1H535v31.6c35 2.8 55 6.8 74.3 10.7 32.9 6.6 56.7 35.7 56.7 69.3v234.1c0 15-12.2 27.2-27.1 27.2zM315.7 451.7V483l-5.1 0.4c-35.4 2.9-56.3 7.2-76.4 11.3l-1.8 0.4c-27.7 5.7-47.7 30.3-47.7 58.5v232.8c0 8.9 7.2 16.1 16.1 16.1h438.1c8.9 0 16.1-7.2 16.1-16.1V552.3c0-28.3-20.1-53-47.9-58.5-19.9-4-40.5-8.1-78-10.9l-5.1-0.4v-30.8H315.7z"
        fill="#333336" />
    <path
        d="M661.4 830.7h-483c-6.5 0-11.7-5.2-11.7-11.7v-36.7c0-6.5 5.2-11.7 11.7-11.7h483c6.5 0 11.7 5.2 11.7 11.7V819c0 6.5-5.3 11.7-11.7 11.7z"
        fill="#D8A128" />
    <path
        d="M661.4 836.2h-483c-9.5 0-17.2-7.7-17.2-17.2v-36.7c0-9.5 7.7-17.2 17.2-17.2h483c9.5 0 17.2 7.7 17.2 17.2V819c0 9.5-7.7 17.2-17.2 17.2z m-483.1-60.1c-3.4 0-6.2 2.8-6.2 6.2V819c0 3.4 2.8 6.2 6.2 6.2h483c3.4 0 6.2-2.8 6.2-6.2v-36.7c0-3.4-2.8-6.2-6.2-6.2h-483z"
        fill="#333336" />
</svg>
