<?xml version="1.0" encoding="utf-8"?>
<!-- Uploaded to: SVG Repo, www.svgrepo.com, Generator: SVG Repo Mixer Tools -->
<svg width="800px" height="800px" viewBox="0 0 1024 1024" class="icon" version="1.1"
    xmlns="http://www.w3.org/2000/svg">
    <path
        d="M547.8 408.1H291.9v-92.8c0-15.2 12.4-27.6 27.6-27.6h200.7c15.2 0 27.6 12.4 27.6 27.6v92.8z"
        fill="#D5D9CF" />
    <path
        d="M638.9 813.5H200.8c-14.9 0-27.1-12.1-27.1-27.1V553.5c0-33.4 23.8-62.6 56.5-69.3l1.8-0.4c19.5-4 39.6-8.1 72.7-11.1v-32.1H535v31.6c35 2.8 55 6.8 74.3 10.7 32.9 6.6 56.7 35.7 56.7 69.3v234.1c0 15-12.2 27.2-27.1 27.2zM315.7 451.7V483l-5.1 0.4c-35.4 2.9-56.3 7.2-76.4 11.3l-1.8 0.4c-27.7 5.7-47.7 30.3-47.7 58.5v232.8c0 8.9 7.2 16.1 16.1 16.1h438.1c8.9 0 16.1-7.2 16.1-16.1V552.3c0-28.3-20.1-53-47.9-58.5-19.9-4-40.5-8.1-78-10.9l-5.1-0.4v-30.8H315.7z"
        fill="#333336" />
</svg>
